# xmcd CD database file
#
# Track frame offsets:
#	150
#	15212
#	37048
#	59084
#	76795
#	100605
#	115702
#	131680
#	148543
#	168203
#	188461
#	206243
#	225885
#	246791
#	263749
#	285775
#	313522
#
# Disc length: 4440 seconds
#
# Revision: 4
# Processed by: cddbd v1.4PL0 Copyright (c) Steve Scherf et al.
# Submitted via: CDex 1.40Beta9
#
DISCID=d0115611
DTITLE=House - Strictly Club 97 part 2 disc 2
DYEAR=1900
DGENRE=Blues
TTITLE0=Why Don't You Dance With Me
TTITLE1=You Make Me Feel
TTITLE2=Let Yourself Go
TTITLE3=Bang
TTITLE4=Curiasity
TTITLE5=I Like 2 Play
TTITLE6=I Have a Dream
TTITLE7=Dialoque
TTITLE8=Need To Be With Someone
TTITLE9=You gotta Feel It
TTITLE10=The Force
TTITLE11=Need Ya Help
TTITLE12=The Shining
TTITLE13=The Opera
TTITLE14=Interspace
TTITLE15=To The Echo
TTITLE16=Sweetness
EXTD=ID3G: 0
EXTT0=
EXTT1=
EXTT2=
EXTT3=
EXTT4=
EXTT5=
EXTT6=
EXTT7=
EXTT8=
EXTT9=
EXTT10=
EXTT11=
EXTT12=
EXTT13=
EXTT14=
EXTT15=
EXTT16=
PLAYORDER=
